<svg width="186" height="124" viewBox="0 0 186 124" fill="none" xmlns="http://www.w3.org/2000/svg">
<g clip-path="url(#clip0)">
<path d="M186 0H0V124H186V0Z" fill="#0A0A0A"/>
<path d="M35.7527 98.6163C34.7397 98.6163 33.7572 98.4821 32.8052 98.2139C31.8655 97.9334 31.1088 97.5738 30.5352 97.1349L31.542 94.9036C32.0913 95.306 32.7442 95.629 33.5009 95.8729C34.2576 96.1169 35.0143 96.2387 35.771 96.2387C36.6131 96.2387 37.2355 96.1169 37.6383 95.8729C38.0411 95.6169 38.2424 95.2815 38.2424 94.867C38.2424 94.5623 38.1205 94.3121 37.8763 94.1172C37.6445 93.9098 37.3392 93.7452 36.9609 93.6234C36.5948 93.5016 36.0944 93.3673 35.4598 93.221C34.4834 92.9895 33.684 92.7576 33.0615 92.526C32.4391 92.2945 31.9021 91.9225 31.4505 91.4104C31.0111 90.8983 30.7915 90.2154 30.7915 89.362C30.7915 88.6184 30.9928 87.9475 31.3956 87.3502C31.7983 86.7405 32.4025 86.2591 33.208 85.9054C34.0257 85.5517 35.0204 85.375 36.192 85.375C37.0096 85.375 37.8093 85.4727 38.5903 85.6676C39.3713 85.8626 40.0548 86.1431 40.6407 86.5089L39.7253 88.7585C38.5416 88.088 37.3575 87.7526 36.1737 87.7526C35.3438 87.7526 34.7275 87.8868 34.3247 88.1549C33.9342 88.4231 33.7389 88.7768 33.7389 89.2157C33.7389 89.6546 33.9647 89.9839 34.4163 90.2033C34.88 90.4107 35.5818 90.6177 36.5216 90.8251C37.4981 91.0567 38.2974 91.2886 38.9198 91.5201C39.5422 91.7517 40.0731 92.1175 40.5125 92.6175C40.964 93.1175 41.1899 93.7942 41.1899 94.6476C41.1899 95.3791 40.9823 96.0496 40.5674 96.6594C40.1647 97.2567 39.5543 97.7322 38.7367 98.0859C37.9191 98.4396 36.9243 98.6163 35.7527 98.6163ZM52.5714 95.6535H46.6216L45.4866 98.3968H42.4476L48.1594 85.5945H51.0885L56.8186 98.3968H53.7064L52.5714 95.6535ZM51.6377 93.4039L49.6056 88.5024L47.5736 93.4039H51.6377ZM62.0292 87.9721V91.3555H67.9607V93.7331H62.0292V98.3968H59.0634V85.5945H68.7479V87.9721H62.0292ZM81.5936 96.0192V98.3968H71.6712V85.5945H81.3556V87.9721H74.6186V90.752H80.5684V93.0564H74.6186V96.0192H81.5936ZM96.6219 85.5945V98.3968H93.6562V93.1479H87.8345V98.3968H84.8688V85.5945H87.8345V90.6423H93.6562V85.5945H96.6219ZM106.775 98.6163C105.445 98.6163 104.243 98.3299 103.169 97.7567C102.107 97.1835 101.271 96.3971 100.66 95.3974C100.063 94.3853 99.7634 93.2514 99.7634 91.9956C99.7634 90.7399 100.063 89.6118 100.66 88.6122C101.271 87.6001 102.107 86.8078 103.169 86.2346C104.243 85.6614 105.445 85.375 106.775 85.375C108.106 85.375 109.301 85.6614 110.363 86.2346C111.425 86.8078 112.261 87.6001 112.871 88.6122C113.482 89.6118 113.787 90.7399 113.787 91.9956C113.787 93.2514 113.482 94.3853 112.871 95.3974C112.261 96.3971 111.425 97.1835 110.363 97.7567C109.301 98.3299 108.106 98.6163 106.775 98.6163ZM106.775 96.0924C107.532 96.0924 108.215 95.9216 108.825 95.5803C109.436 95.2266 109.912 94.739 110.253 94.1172C110.607 93.4953 110.784 92.7883 110.784 91.9956C110.784 91.203 110.607 90.4959 110.253 89.8741C109.912 89.2523 109.436 88.7706 108.825 88.4293C108.215 88.0756 107.532 87.8989 106.775 87.8989C106.019 87.8989 105.335 88.0756 104.725 88.4293C104.115 88.7706 103.632 89.2523 103.278 89.8741C102.937 90.4959 102.766 91.203 102.766 91.9956C102.766 92.7883 102.937 93.4953 103.278 94.1172C103.632 94.739 104.115 95.2266 104.725 95.5803C105.335 95.9216 106.019 96.0924 106.775 96.0924ZM122.625 98.6163C120.794 98.6163 119.366 98.1104 118.341 97.0983C117.328 96.0862 116.821 94.6413 116.821 92.7638V85.5945H119.787V92.6541C119.787 94.9464 120.739 96.0924 122.643 96.0924C123.57 96.0924 124.278 95.8181 124.766 95.2694C125.255 94.7087 125.499 93.8366 125.499 92.6541V85.5945H128.428V92.7638C128.428 94.6413 127.915 96.0862 126.89 97.0983C125.877 98.1104 124.455 98.6163 122.625 98.6163ZM136.484 98.6163C135.472 98.6163 134.489 98.4821 133.537 98.2139C132.598 97.9334 131.841 97.5738 131.267 97.1349L132.274 94.9036C132.823 95.306 133.476 95.629 134.233 95.8729C134.99 96.1169 135.746 96.2387 136.503 96.2387C137.345 96.2387 137.967 96.1169 138.37 95.8729C138.773 95.6169 138.974 95.2815 138.974 94.867C138.974 94.5623 138.852 94.3121 138.608 94.1172C138.376 93.9098 138.071 93.7452 137.693 93.6234C137.327 93.5016 136.826 93.3673 136.192 93.221C135.215 92.9895 134.416 92.7576 133.793 92.526C133.171 92.2945 132.634 91.9225 132.182 91.4104C131.743 90.8983 131.523 90.2154 131.523 89.362C131.523 88.6184 131.725 87.9475 132.127 87.3502C132.53 86.7405 133.134 86.2591 133.94 85.9054C134.758 85.5517 135.752 85.375 136.924 85.375C137.742 85.375 138.541 85.4727 139.322 85.6676C140.103 85.8626 140.787 86.1431 141.372 86.5089L140.457 88.7585C139.273 88.088 138.09 87.7526 136.906 87.7526C136.076 87.7526 135.459 87.8868 135.057 88.1549C134.666 88.4231 134.471 88.7768 134.471 89.2157C134.471 89.6546 134.697 89.9839 135.148 90.2033C135.612 90.4107 136.314 90.6177 137.253 90.8251C138.23 91.0567 139.029 91.2886 139.652 91.5201C140.274 91.7517 140.805 92.1175 141.244 92.6175C141.696 93.1175 141.922 93.7942 141.922 94.6476C141.922 95.3791 141.714 96.0496 141.299 96.6594C140.896 97.2567 140.286 97.7322 139.469 98.0859C138.651 98.4396 137.656 98.6163 136.484 98.6163ZM154.786 96.0192V98.3968H144.864V85.5945H154.548V87.9721H147.811V90.752H153.761V93.0564H147.811V96.0192H154.786Z" fill="white"/>
<path fill-rule="evenodd" clip-rule="evenodd" d="M49.0625 58.5989L93.0757 14.6289L93.0804 14.6336L93.0807 14.6333L112 33.481V22.0012H119V40.4545L137.218 58.6033L131.522 64.2935L93.084 26.0011L54.7583 64.2891L49.0625 58.5989ZM86.4102 50.1145H99.9574V73.5245H86.4102V50.1145Z" fill="white"/>
</g>
<defs>
<clipPath id="clip0">
<rect width="186" height="124" fill="white"/>
</clipPath>
</defs>
</svg>
